# File created by Blade
# Date/Time:  Thu Jan 22 19:13:21 2015
#---------------------------------------------------------
:version 1.10
:name HOM
:units
  mass 1.0
  length 1.000000
  angle deg
:documentation
     Acclaim Skeleton File
:root
   axis xyz
   order TX TY TZ RX RY RZ
   position 0.000000 0.000000 0.000000
   orientation 0 0 0
:bonedata
   begin
      id 1
      name RightUpLeg_dum
      direction -1.000000 0.000000 0.000000
      length 4.478084
      axis 0.0 0.0 0.0 xyz
   end
   begin
      id 2
      name LeftUpLeg_dum
      direction 1.000000 0.000000 0.000000
      length 4.478084
      axis 0.0 0.0 0.0 xyz
   end
   begin
      id 3
      name Spine_dum
      direction 0.000000 1.000000 0.000000
      length 6.068208
      axis 0.0 0.0 0.0 xyz
   end
   begin
      id 4
      name RightUpLeg
      direction 0.000000 -1.000000 0.000000
      length 16.405774
      axis 0.0 0.0 0.0 xyz
      dof rx ry rz
   end
   begin
      id 5
      name RightLeg
      direction 0.000000 -1.000000 0.000000
      length 14.644143
      axis 0.0 0.0 0.0 xyz
      dof rx ry rz
   end
   begin
      id 6
      name RightFoot
      direction 0.000000 -0.258819 0.965926
      length 5.806150
      axis 15.0 0.0 0.0 xyz
      dof rx ry rz
   end
   begin
      id 7
      name RightToeBase
      direction 0.000000 0.000000 1.000000
      length 2.952750
      axis 0.0 0.0 0.0 xyz
      dof rx ry rz
   end
   begin
      id 8
      name LeftUpLeg
      direction 0.000000 -1.000000 0.000000
      length 16.405774
      axis 0.0 0.0 0.0 xyz
      dof rx ry rz
   end
   begin
      id 9
      name LeftLeg
      direction 0.000000 -1.000000 0.000000
      length 14.644143
      axis 0.0 0.0 0.0 xyz
      dof rx ry rz
   end
   begin
      id 10
      name LeftFoot
      direction 0.000000 -0.258819 0.965926
      length 5.806150
      axis 15.0 0.0 0.0 xyz
      dof rx ry rz
   end
   begin
      id 11
      name LeftToeBase
      direction 0.000000 0.000000 1.000000
      length 2.952750
      axis 0.0 0.0 0.0 xyz
      dof rx ry rz
   end
   begin
      id 12
      name Spine
      direction 0.000000 1.000000 0.000000
      length 0.000000
      axis 0.0 0.0 0.0 xyz
      dof rx ry rz
   end
   begin
      id 13
      name Spine_dum1
      direction 0.000000 1.000000 0.000000
      length 10.013923
      axis 0.0 0.0 0.0 xyz
   end
   begin
      id 14
      name Spine_dum2
      direction 0.000000 1.000000 0.000000
      length 10.013923
      axis 0.0 0.0 0.0 xyz
   end
   begin
      id 15
      name Spine_dum3
      direction 0.000000 1.000000 0.000000
      length 15.777476
      axis 0.0 0.0 0.0 xyz
   end
   begin
      id 16
      name RightShoulder
      direction -1.000000 0.000000 0.000000
      length 7.190220
      axis 0.0 0.0 90.0 xyz
      dof rx ry rz
   end
   begin
      id 17
      name RightArm
      direction -1.000000 0.000000 0.000000
      length 10.177469
      axis 0.0 0.0 90.0 xyz
      dof rx ry rz
   end
   begin
      id 18
      name RightForeArm
      direction -1.000000 0.000000 0.000000
      length 8.392114
      axis 0.0 0.0 90.0 xyz
      dof ry rz rx
   end
   begin
      id 19
      name RightHand
      direction -1.000000 0.000000 0.000000
      length 0.000000
      axis 0.0 0.0 90.0 xyz
      dof rx ry rz
   end
   begin
      id 20
      name RightHand_dum1
      direction -1.000000 0.000000 0.000000
      length 3.937000
      axis 0.0 0.0 90.0 xyz
   end
   begin
      id 21
      name RightHand_dum2
      direction 0.000000 0.000000 0.000000
      length 0.000000
      axis 0.0 0.0 90.0 xyz
   end
   begin
      id 22
      name RightHandThumb1
      direction 0.000000 0.000000 1.000000
      length 3.937000
      axis 0.0 0.0 90.0 xyz
      dof rx rz ry
   end
   begin
      id 23
      name LeftShoulder
      direction 1.000000 0.000000 0.000000
      length 7.190220
      axis 0.0 0.0 -90.0 xyz
      dof rx ry rz
   end
   begin
      id 24
      name LeftArm
      direction 1.000000 0.000000 0.000000
      length 10.177469
      axis 0.0 0.0 -90.0 xyz
      dof rx ry rz
   end
   begin
      id 25
      name LeftForeArm
      direction 1.000000 0.000000 0.000000
      length 8.392114
      axis 0.0 0.0 -90.0 xyz
      dof ry rz rx
   end
   begin
      id 26
      name LeftHand
      direction 1.000000 0.000000 0.000000
      length 0.000000
      axis 0.0 0.0 -90.0 xyz
      dof rx ry rz
   end
   begin
      id 27
      name LeftHand_dum1
      direction 1.000000 0.000000 0.000000
      length 3.937000
      axis 0.0 0.0 -90.0 xyz
   end
   begin
      id 28
      name LeftHand_dum2
      direction 0.000000 0.000000 0.000000
      length 0.000000
      axis 0.0 0.0 -90.0 xyz
   end
   begin
      id 29
      name LeftHandThumb1
      direction 0.000000 0.000000 1.000000
      length 3.937000
      axis 0.0 0.0 -90.0 xyz
      dof rx rz ry
   end
   begin
      id 30
      name Head
      direction 0.000000 1.000000 0.000000
      length 4.527550
      axis 0.0 0.0 0.0 xyz
      dof rx ry rz
   end
:hierarchy
   begin
      root RightUpLeg_dum LeftUpLeg_dum Spine_dum
      RightUpLeg_dum RightUpLeg
      LeftUpLeg_dum LeftUpLeg
      Spine_dum Spine
      RightUpLeg RightLeg
      RightLeg RightFoot
      RightFoot RightToeBase
      LeftUpLeg LeftLeg
      LeftLeg LeftFoot
      LeftFoot LeftToeBase
      Spine Spine_dum1 Spine_dum2 Spine_dum3
      Spine_dum1 RightShoulder
      Spine_dum2 LeftShoulder
      Spine_dum3 Head
      RightShoulder RightArm
      RightArm RightForeArm
      RightForeArm RightHand
      RightHand RightHand_dum1 RightHand_dum2
      RightHand_dum2 RightHandThumb1
      LeftShoulder LeftArm
      LeftArm LeftForeArm
      LeftForeArm LeftHand
      LeftHand LeftHand_dum1 LeftHand_dum2
      LeftHand_dum2 LeftHandThumb1
   end

# File created by Blade
# Date/Time:  Thu Jan 22 19:13:14 2015
# Frame Rate: 120.000 fps
#------------------------------------------------------
:FULLY-SPECIFIED
:DEGREES
92
root -0.797335 33.083536 -1.454669 8.645102 -1.222934 2.690775
RightUpLeg -1.921112 -7.105780 -3.636876
RightLeg -1.047703 -0.000000 0.000000
RightFoot -11.420939 -3.797510 4.954268
RightToeBase 5.937377 -0.000000 -0.000000
LeftUpLeg -3.498726 3.535519 3.652688
LeftLeg 2.319999 -0.000000 -0.000000
LeftFoot -10.398254 0.494342 -16.253328
LeftToeBase 8.249530 -0.000000 -0.000000
Spine -9.070026 -1.635040 -2.052820
RightShoulder -19.044466 -11.753562 -26.893361
RightArm 20.329226 24.555241 35.143619
RightForeArm -14.167123 -0.000000 8.803542
RightHand 11.003700 -0.000000 14.232253
RightHandThumb1 -24.326973 -0.000000 -32.862282
LeftShoulder -23.258351 7.290018 29.569783
LeftArm 17.360357 -24.020396 -33.646236
LeftForeArm 25.056084 -0.000000 -0.257261
LeftHand -3.748169 -0.000000 -13.519645
LeftHandThumb1 -26.253704 0.000000 33.147579
Head -6.357368 4.383041 2.179702
93
root -0.789406 33.083876 -1.457572 8.621021 -1.254059 2.694530
RightUpLeg -1.908945 -7.071164 -3.661895
RightLeg -1.047894 -0.000000 0.000000
RightFoot -11.414872 -3.792707 4.974166
RightToeBase 5.948058 -0.000000 -0.000000
LeftUpLeg -3.535982 3.609302 3.625540
LeftLeg 2.447255 -0.000000 -0.000000
LeftFoot -10.451912 0.451291 -16.226301
LeftToeBase 8.255597 -0.000000 -0.000000
Spine -9.035608 -1.616181 -2.060594
RightShoulder -19.033271 -11.769849 -26.882300
RightArm 20.351503 24.540019 35.169317
RightForeArm -14.123396 -0.000000 8.812959
RightHand 10.969531 -0.000000 14.173001
RightHandThumb1 -24.326973 -0.000000 -32.862282
LeftShoulder -23.259290 7.286325 29.550765
LeftArm 17.352834 -24.043889 -33.679923
LeftForeArm 25.084860 0.000000 -0.235054
LeftHand -3.709454 -0.000000 -13.502227
LeftHandThumb1 -26.253704 0.000000 33.147579
Head -6.358826 4.366243 2.180187
94
root -0.780944 33.083751 -1.460712 8.592575 -1.288841 2.702592
RightUpLeg -1.900852 -7.003147 -3.690339
RightLeg -1.031060 -0.000000 0.000000
RightFoot -11.420809 -3.841897 4.955343
RightToeBase 5.950692 -0.000000 -0.000000
LeftUpLeg -3.564568 3.656043 3.596429
LeftLeg 2.569820 -0.000000 -0.000000
LeftFoot -10.507094 0.432639 -16.191939
LeftToeBase 8.210131 -0.000000 -0.000000
Spine -8.990752 -1.602780 -2.079133
RightShoulder -19.009315 -11.729453 -26.890056
RightArm 20.333553 24.507958 35.195019
RightForeArm -14.173826 -0.000000 8.826962
RightHand 11.000866 -0.000000 14.182504
RightHandThumb1 -24.326973 -0.000000 -32.862282
LeftShoulder -23.261578 7.275729 29.542957
LeftArm 17.332144 -24.038869 -33.701604
LeftForeArm 25.109128 -0.000000 -0.224337
LeftHand -3.682403 0.000000 -13.483560
LeftHandThumb1 -26.253704 0.000000 33.147579
Head -6.372593 4.360718 2.184989
95
root -0.772340 33.083704 -1.464155 8.573304 -1.332356 2.703746
RightUpLeg -1.907245 -6.978237 -3.712177
RightLeg -1.010590 -0.000000 0.000000
RightFoot -11.425820 -3.825438 4.971526
RightToeBase 5.961468 -0.000000 -0.000000
LeftUpLeg -3.615514 3.784693 3.565589
LeftLeg 2.719063 -0.000000 -0.000000
LeftFoot -10.570935 0.366972 -16.131095
LeftToeBase 8.217313 -0.000000 -0.000000
Spine -8.962856 -1.581567 -2.091737
RightShoulder -18.974267 -11.707631 -26.905741
RightArm 20.319796 24.507179 35.250035
RightForeArm -14.220410 -0.000000 8.857729
RightHand 11.015477 -0.000000 14.273129
RightHandThumb1 -24.326973 -0.000000 -32.862282
LeftShoulder -23.258264 7.292700 29.529678
LeftArm 17.324298 -24.085092 -33.741158
LeftForeArm 25.094860 -0.000000 -0.193914
LeftHand -3.727485 -0.000000 -13.464053
LeftHandThumb1 -26.253704 0.000000 33.147579
Head -6.357884 4.406158 2.160377
96
root -0.762770 33.083953 -1.467409 8.547783 -1.383701 2.705954
RightUpLeg -1.904989 -6.948967 -3.739907
RightLeg -0.999546 -0.000000 0.000000
RightFoot -11.418082 -3.797068 4.989451
RightToeBase 5.981526 -0.000000 -0.000000
LeftUpLeg -3.651742 3.849935 3.535708
LeftLeg 2.854671 -0.000000 -0.000000
LeftFoot -10.642198 0.356794 -16.065686
LeftToeBase 8.217927 -0.000000 -0.000000
Spine -8.922011 -1.560450 -2.104343
RightShoulder -18.941882 -11.684591 -26.895602
RightArm 20.318763 24.469615 35.260129
RightForeArm -14.243298 0.000000 8.858957
RightHand 11.102922 0.000000 14.242083
RightHandThumb1 -24.326973 -0.000000 -32.862282
LeftShoulder -23.266695 7.306812 29.515456
LeftArm 17.284402 -23.975995 -33.726184
LeftForeArm 24.946152 -0.000000 -0.146607
LeftHand -3.761532 -0.000000 -13.477420
LeftHandThumb1 -26.253704 0.000000 33.147579
Head -6.375453 4.392665 2.160470
97
root -0.750459 33.084245 -1.469818 8.517907 -1.444597 2.718197
RightUpLeg -1.901098 -6.915370 -3.783048
RightLeg -0.983832 -0.000000 0.000000
RightFoot -11.416110 -3.777416 4.995417
RightToeBase 5.946450 -0.000000 -0.000000
LeftUpLeg -3.663691 3.841310 3.494857
LeftLeg 2.958805 -0.000000 -0.000000
LeftFoot -10.717595 0.408057 -16.053068
LeftToeBase 8.270698 -0.000000 -0.000000
Spine -8.880808 -1.522754 -2.131109
RightShoulder -18.927803 -11.701518 -26.867830
RightArm 20.358251 24.420512 35.266245
RightForeArm -14.231602 0.000000 8.867421
RightHand 11.021448 -0.000000 14.266441
RightHandThumb1 -24.326973 -0.000000 -32.862282
LeftShoulder -23.273571 7.332100 29.499226
LeftArm 17.293201 -23.994877 -33.759165
LeftForeArm 24.951589 -0.000000 -0.129274
LeftHand -3.700288 -0.000000 -13.407106
LeftHandThumb1 -26.253704 0.000000 33.147579
Head -6.362879 4.338931 2.169442
98
root -0.738576 33.084740 -1.473244 8.500869 -1.490263 2.716644
RightUpLeg -1.906020 -6.907693 -3.808693
RightLeg -0.972818 -0.000000 0.000000
RightFoot -11.407772 -3.738211 5.029308
RightToeBase 5.997280 -0.000000 -0.000000
LeftUpLeg -3.697608 3.820836 3.471887
LeftLeg 3.071137 -0.000000 -0.000000
LeftFoot -10.789456 0.454342 -16.061893
LeftToeBase 8.222709 -0.000000 -0.000000
Spine -8.851219 -1.498212 -2.132658
RightShoulder -18.914164 -11.714839 -26.861693
RightArm 20.383060 24.414281 35.304259
RightForeArm -14.232072 -0.000000 8.885163
RightHand 10.947857 -0.000000 14.181814
RightHandThumb1 -24.326973 -0.000000 -32.862282
LeftShoulder -23.286068 7.341957 29.480482
LeftArm 17.294507 -23.972314 -33.783446
LeftForeArm 24.883355 -0.000000 -0.098404
LeftHand -3.781271 0.000000 -13.472925
LeftHandThumb1 -26.253704 0.000000 33.147579
Head -6.363712 4.333856 2.176382
